<svg xmlns="http://www.w3.org/2000/svg" xmlns:xlink="http://www.w3.org/1999/xlink" xmlns:v="http://vecta.io" width="297" height="109" viewBox="0 0 297 109" >
    <style>
        <![CDATA[svg{stroke:#000;stroke-linecap:round;stroke-linejoin:round;fill:#fff;fill-rule:evenodd;font-family:Roboto;font-size:14px;text-anchor:middle}svg text{stroke:none}]]>
    </style>
    <defs>
        <linearGradient id="L5005010004387FD1004683EA.grad" x1="50%" y1="0%" x2="50%" y2="100%">
            <stop offset="0%" stop-color="#4387FD"/>
            <stop offset="100%" stop-color="#4683EA"/>
        </linearGradient>
    </defs>
    <g class="k1tukp95od.lay" transform="translate(215 20)">
        <g >
            <g>
                <path d="M 79.25 37.5 Q 80.75 35 79.25 32.5 L 61.5 2 Q 60 0 57.5 0 L 22.5 0 Q 20 0 18.5 2 L 0.75 32.5 Q -0.75 35 0.75 37.5 L 18.5 68 Q 20 70 22.5 70 L 57.5 70 Q 60 70 61.5 68 Z" fill="url(#L5005010004387FD1004683EA.grad)" stroke="none"/>
            </g>
            <g transform="translate(23.5 23)">
                <path d="M 52.2552 20.5052 L 34.75 3 L 18 3 L 18 10 L 26.5 18.5 L 26.75 19.75 L 7 0 L 0 5.75 L 7.5 14 L 5.25 18 L 0 24 L 23 47 L 34 47 Q 36.5 47 38 45 Z" fill="#000000" fill-opacity="0.07" stroke="none"/>
            </g>
            <g transform="translate(23.5 37)">
                <path d="M 11.25 4.5 L 7.5 0 L 4 4 L 0 4 L 0 10 L 7 10 L 11.25 4.5 Z" stroke="none"/>
            </g>
            <g transform="translate(23.5 23)">
                <path d="M 25.5 18 L 21.75 18 L 7 0 L 0 0 L 0 5.75 L 4 5.75 L 19 24 L 25.5 24 L 25.5 28.75 L 34.75 21 L 25.5 13.25 Z" stroke="none"/>
            </g>
            <g transform="translate(37.75 18.25)">
                <path d="M 11.25 10.75 L 7.25 10.75 L 3.75 14.75 L 0 10.25 L 4.25 4.75 L 11.25 4.75 L 11.25 0 L 20.5 7.75 L 11.25 15.5 Z" stroke="none"/>
            </g>
        </g>
    </g>
    <path d="M 41.5243 101.2366 C 42.0382 102.2531 42.9097 103.3703 43.8333 104.1385 C 44.9618 105.0779 46.3732 105.7421 47.8646 106.2756 C 48.9062 106.6479 50.2812 106.9717 51.394 107.1646 C 52.5468 107.3659 53.9634 107.3608 55.2968 107.3323 C 57.6683 107.3072 59.5398 107.0941 61.6508 106.5943 C 62.9824 106.2806 64.2463 105.9334 65.2723 105.5425 C 67.2098 104.8045 68.4442 103.9876 68.7029 103.4575 L 67.9789 99.9735 L 67.4581 96.6187 C 67.1681 94.1865 67.3192 92.4755 67.6386 89.6457 C 68.1126 85.479 69.0327 83.5802 70.3782 81.1044 C 71.6629 78.756 73.7809 75.4347 75.4163 73.3044 C 77.1177 71.0852 81.3833 66.7625 82.9388 65.1354 C 83.4822 65.2897 84.5291 65.6286 86.1506 65.9372 C 87.3658 66.1721 88.8241 66.4539 90.6332 66.3952 C 94.9421 66.2543 96.5098 65.4592 99.015 63.879 C 101.2719 62.4465 103.4646 59.5815 104.6052 56.8339 C 105.4819 54.7204 105.751 52.5733 105.3691 50.0488 C 105.1121 48.3513 104.5444 46.3585 104.0913 45.0132 C 103.5983 43.5673 102.824 42.0157 102.1729 40.8398 C 102.1729 40.8398 104.7875 37.8205 105.8187 35.3044 C 106.7215 33.1355 107.1382 30.3443 106.9593 28.5998 C 106.7719 26.7882 105.1816 23.4669 104.1816 22.2827 C 102.8622 20.7227 101.5775 19.1023 99.9508 17.8325 C 98.3535 16.5879 96.548 15.568 94.6591 14.8065 C 92.6974 14.0147 90.3536 13.5585 88.496 13.2414 C 88.2182 11.8039 87.8328 10.8008 86.8085 9.0697 C 85.529 6.8472 84.1245 5.8424 81.9162 4.2807 C 79.2114 2.3483 75.392 0.3472 71.6855 0.0738 C 69.3813 -0.1062 67.0624 0.0436 64.8036 0.5183 C 62.2446 1.05 59.7221 2.0548 57.8019 3.0009 C 53.9478 1.5751 50.3367 1.7864 47.5121 2.5312 C 45.1163 3.1585 44.6076 3.5376 42.4167 4.7823 C 40.2639 5.6797 37.9306 7.768 36.1199 10.1835 C 29.3839 10.3513 23.7728 12.6577 19.7798 14.8467 C 15.2382 17.3377 11.1619 22.0982 9.5664 25.1259 C 7.7852 28.5059 6.0074 33.2865 7.5091 40.6788 C -2.4161 46.5766 -1.3953 56.0254 4.1845 61.2757 C 9.0803 65.8953 17.2052 67.3345 24.8648 66.5864 C 27.1599 68.8341 35.8369 78.9925 35.8369 78.9925 C 35.8369 78.9925 44.5799 88.5118 41.5209 101.2349 Z M 32.1061 61.8293 C 33.2935 60.6819 34.3109 59.0414 35.1043 57.8035 C 36.0036 57.8538 37.8473 57.9712 39.6633 57.8873 C 41.4792 57.8035 43.4132 57.5468 44.1823 57.1107 C 44.3993 57.7381 45.9045 62.9313 46 66.1217 C 46.125 70.3052 46.0052 71.0466 45.3056 72.516 C 44.9236 72.6905 44.5538 72.7676 44.0868 72.6033 C 42.4202 72.0262 39.6424 70.015 37.6546 68.2219 C 34.5713 65.4441 32.1095 61.8477 32.1095 61.8477 Z M 66.4216 60.9453 C 66.3322 62.2558 66.3846 63.5719 66.5779 64.8721 C 66.8383 66.4908 67.09 67.9921 67.7237 68.5624 C 69.9459 68.1766 71.4945 66.8011 72.8347 65.8332 L 78.043 61.7991 C 77.2626 61.0249 76.6328 60.1215 76.1837 59.132 C 75.7344 58.1423 73.1229 59.9975 71.583 60.3062 C 69.8883 60.6361 68.1707 60.8441 66.4442 60.9285 Z" stroke="none" fill="#598527" fill-rule="nonzero" stroke-width="1" transform="translate(0 0)" class="k1tukp95od.lay"/>
</svg>