<svg xmlns="http://www.w3.org/2000/svg" xmlns:xlink="http://www.w3.org/1999/xlink" xmlns:v="http://vecta.io" width="327" height="212" viewBox="0 0 327 212" >
    <style>
        <![CDATA[svg{stroke:#000;stroke-linecap:round;stroke-linejoin:round;fill:#fff;fill-rule:evenodd;font-family:Roboto;font-size:14px;text-anchor:middle}svg text{stroke:none}]]>
    </style>
    <rect x="0" y="0" width="325" height="210" class="k1tula7poo.lay" stroke-linejoin="bevel" fill="none" transform="translate(0.5 0.5)"/>
    <g class="k1tula7poo.lay" transform="translate(20.5 40.5)">
        <g >
            <g transform="translate(0 0)">
                <path d="M 16.8781 18.3067 C 18.3036 17.134 19.3452 15.5619 19.9114 13.7926 C 20.9527 11.0731 19.623 8.03 16.8781 6.9381 C 8.1179 2.4999 2.4617 10.4058 1.6428 12.2458 C 0.8239 14.0858 -0.6218 17.0076 0.2931 23.67 C 1.2078 30.3324 4.423 36.4843 14.4773 38.9056 C 24.0969 41.1399 34.1916 39.9166 43.0375 35.5694 L 72.7609 23.1746 C 75.5095 22.501 78.3271 22.1497 81.1572 22.1282 L 81.1572 11.9476 C 76.6694 3.8819 67.8361 -0.7656 58.6475 0.1038 C 42.5929 1.3676 36.2136 9.6273 32.3617 13.1658 C 28.5098 16.7043 21.2054 25.0904 16.3474 23.6245 C 11.4896 22.1586 10.1197 16.1583 11.8336 14.3133 C 13.5472 12.4682 14.8966 12.7968 15.9634 14.3133 C 16.6178 15.5351 16.9454 16.9057 16.9135 18.2915 Z" stroke="none" fill="#000000" fill-rule="nonzero" stroke-width="2"/>
            </g>
            <g transform="translate(80.591 0)">
                <path d="M 64.2788 18.3067 C 62.8533 17.134 61.812 15.5619 61.2458 13.7926 C 60.2045 11.0731 61.5339 8.03 64.2788 6.9381 C 73.039 2.4999 78.6955 10.4058 79.5144 12.2458 C 80.3333 14.0858 81.779 17.0076 80.8641 23.67 C 79.9491 30.3324 76.7342 36.4843 66.6799 38.9056 C 57.0603 41.1399 46.9656 39.9166 38.1194 35.5694 L 8.3963 23.1746 C 5.6476 22.501 2.83 22.1497 0 22.1282 L 0 11.9476 C 4.4878 3.8819 13.3208 -0.7656 22.5097 0.1038 C 38.5642 1.3676 44.9436 9.6273 48.7955 13.1658 C 52.6473 16.7043 59.9517 25.0449 64.8095 23.579 C 69.6673 22.1131 71.0372 16.1128 69.3236 14.2678 C 67.61 12.4227 66.2603 12.7513 65.1937 14.2678 C 64.5391 15.4896 64.2118 16.8602 64.2434 18.246 Z" stroke="none" fill="#000000" fill-rule="nonzero" stroke-width="2"/>
            </g>
        </g>
    </g>
    <g class="k1tula7poo.lay" transform="translate(205.5 60.5)">
        <g >
            <g transform="translate(0 22.5)">
                <path d="M 90 0 L 0 1e-13 L 7.5 86.25 L 45 97.5 L 82.5 86.25 L 90 0" fill="#1572B6" stroke="none"/>
            </g>
            <g transform="translate(45 30)">
                <path d="M 32.6087 48.75 L 33.2609 41.25 L 34.2392 30 L 35.2175 18.75 L 36.1956 7.5 L 36.8478 0 L 0 0 L 0 82.5 L 22.7679 75.6696 L 30.4687 73.3595 L 31.4731 61.8081 L 32.4777 50.2568 Z" fill="#33A9DC" stroke="none"/>
            </g>
            <g transform="translate(19.5 0)">
                <path d="M 13.5 0 L 0 0 L 0 16.5 L 13.5 16.5 L 13.5 12 L 4.5 12 L 4.5 4.5 L 13.5 4.5 Z" fill="#000000" stroke="none"/>
            </g>
            <g transform="translate(37.5 0)">
                <path d="M 15 0 L 15 4.5 L 7.5 4.5 L 15 12 L 15 16.5 L 0 16.5 L 0 12 L 7.5 12 L 0 4.5 L 0 0 Z" fill="#000000" stroke="none"/>
            </g>
            <g transform="translate(57 0)">
                <path d="M 15 0 L 15 4.5 L 7.5 4.5 L 15 12 L 15 16.5 L 0 16.5 L 0 12 L 7.5 12 L 0 4.5 L 0 0 Z" fill="#000000" stroke="none"/>
            </g>
            <g transform="translate(19.8915 78.75)">
                <path d="M 17.5082 20.2199 L 13.6578 19.0647 L 1.3364 15.3683 L 0.3318 3.8169 L 0 0 L 12 0 L 12.6532 7.5133 L 16.5038 8.6685 L 25.1087 11.25 L 25.1087 22.5 Z" fill="#EBEBEB" stroke="none"/>
            </g>
            <g transform="translate(16.3044 37.5)">
                <path d="M 0.9782 11.25 L 12.9781 11.25 L 16.7282 11.25 L 28.6956 11.25 L 28.6956 0 L 15.75 0 L 12 0 L 0 0 Z" fill="#EBEBEB" stroke="none"/>
            </g>
            <g transform="translate(45 37.5)">
                <path d="M 0 52.5 L 12.4554 48.7634 L 13.1086 41.25 L 13.7609 33.75 L 0 33.75 L 0 22.5 L 14.7392 22.5 L 15.7175 11.25 L 0 11.25 L 0 0 L 16.6956 0 L 28.6956 0 L 27.7174 11.25 L 26.7391 22.5 L 25.7608 33.75 L 25.1087 41.25 L 24.7769 45.0669 L 23.7723 56.6182 L 11.4508 60.3147 L 0 63.75 L 0 52.5 Z" stroke="none"/>
            </g>
            <g transform="translate(34.011 60)">
                <path d="M 10.9891 11.25 L 0.9783 11.25 L 0 0 L 10.9891 0 Z" fill="#EBEBEB" stroke="none"/>
            </g>
        </g>
    </g>
</svg>