<svg xmlns="http://www.w3.org/2000/svg" xmlns:xlink="http://www.w3.org/1999/xlink" xmlns:v="http://vecta.io" width="422" height="262" viewBox="0 0 422 262" >
    <style>
        <![CDATA[svg{stroke:#000;stroke-linecap:round;stroke-linejoin:round;fill:#fff;fill-rule:evenodd;font-family:Roboto;font-size:14px;text-anchor:middle}svg text{stroke:none}]]>
    </style>
    <rect x="0" y="0" width="420" height="260" class="k1tujvzynn.lay" stroke-linejoin="bevel" fill="none" transform="translate(0.5 0.5)"/>
    <g class="k1tujvzynn.lay" transform="translate(35.5 25.5)">
        <g >
            <g transform="translate(0 0)">
                <path d="M 316.7749 89.596 C 316.0043 82.0978 310.5138 78.7547 305.3603 78.7547 C 303.0003 78.7547 301.1221 79.4232 300.3996 79.7098 L 299.3882 80.1396 L 298.5213 80.7606 C 297.3172 81.668 295.198 82.9096 293.3197 83.5783 C 293.2233 82.05 293.2714 80.0919 293.5122 78.468 L 293.5605 78.1815 C 294.9572 65 292.1638 57.3108 285.2764 55.3527 C 284.1205 55.0184 282.9164 54.8751 281.7124 54.8751 C 277.5224 54.8751 273.8138 56.881 271.4056 58.6003 C 269.3828 56.069 266.0114 54.6362 261.773 54.6362 C 255.4638 54.6362 250.4066 57.5495 248.5766 62.23 C 248.3838 62.7076 248.143 63.4239 247.8541 64.3791 C 244.1455 56.2601 236.5839 53.1557 229.5522 53.1557 C 222.9058 53.1557 216.4519 55.7347 214.0439 57.5495 C 213.9475 57.6451 213.803 57.6929 213.6586 57.8362 C 207.3492 62.2778 202.4366 67.8655 198.9689 74.5995 C 197.2833 68.7729 193.5747 63.3284 186.9283 59.2212 L 186.8319 59.1256 C 186.6392 59.0301 186.4947 58.9345 186.3022 58.8391 C 192.8041 47.3769 198.5836 32.1896 195.1159 17.7187 C 191.4555 2.2924 182.3047 0 177.1513 0 C 175.0322 0 172.8647 0.382 170.6494 1.1461 L 170.5047 1.1939 L 170.3603 1.2417 C 160.6795 5.0148 156.4413 10.698 155.5261 12.0352 C 154.5628 13.468 143.9672 29.4195 141.4145 52.7737 C 141.1255 55.3527 140.8366 58.0273 140.5475 60.7017 C 139.0545 58.6003 136.5983 56.6899 132.697 55.496 C 131.493 55.114 130.2408 54.9707 128.9886 54.9707 C 123.6425 54.9707 119.3078 58.2182 116.9959 60.3675 L 116.9478 60.3197 C 114.925 57.3586 111.6981 55.5914 108.134 55.4483 L 107.267 55.4483 C 101.5839 55.4483 97.0567 57.9317 93.7334 60.7495 C 91.6142 57.072 87.7131 54.7796 83.1376 54.7796 C 82.7523 54.7796 82.4153 54.7796 82.0781 54.8273 L 81.3075 54.8273 C 74.9981 54.8273 70.0373 57.7884 68.0145 62.7076 C 67.87 63.0897 67.6773 63.5672 67.4848 64.1881 C 62.524 58.0749 56.2147 55.2094 47.7381 55.2094 L 46.9192 55.2094 C 41.6214 55.3049 28.4248 57.5018 20.3334 75.5547 C 19.0812 78.3248 18.1179 81.1426 17.3956 83.9126 C 15.6136 83.1007 13.9759 82.9096 12.7718 82.9096 C 8.5337 82.9096 5.3548 85.2976 3.8137 87.5422 C 2.5615 89.3571 -1.436 95.8046 0.5387 102.1087 C 1.5982 105.4997 4.0545 108.0786 7.5223 109.416 C 10.5565 110.6099 14.4095 111.7561 17.2992 112.568 C 19.0812 116.5798 22.26 121.2123 27.895 125.463 C 31.8925 128.4717 36.9978 130 43.0181 130 C 53.1323 130 62.9092 125.6539 63.9689 125.1764 L 64.3542 124.9853 L 64.4504 124.8899 C 66.377 126.8958 68.9295 128.3285 72.1565 128.9493 C 73.1198 129.1404 74.372 129.2835 75.8169 129.2835 C 81.3075 129.2835 85.1123 126.5136 88.6281 121.3079 C 91.518 125.7973 96.7678 128.3285 102.9806 128.3285 L 103.0289 128.3285 C 103.3659 128.3285 103.7031 128.5672 104.0884 128.5672 C 107.3634 128.5672 111.4573 127.421 114.8769 121.9766 C 117.7184 127.0389 122.92 129.9522 129.0848 129.9522 C 134.5753 129.9522 139.3436 127.7076 140.2105 127.2778 L 140.4031 127.1823 C 142.2333 126.2271 143.7745 125.3674 144.9786 124.6988 C 149.0724 126.848 155.2853 129.2359 162.895 129.2359 C 164.1955 129.2359 165.4958 129.1882 166.7963 129.0448 L 167.1333 128.9971 L 167.4705 128.9493 C 183.605 125.7973 194.1045 121.9766 200.3656 119.0633 C 204.7484 123.9347 211.732 128.615 221.7017 129.3313 C 222.8094 129.4269 223.9653 129.4746 225.0731 129.4746 C 233.2608 129.4746 239.8108 127.1823 244.6272 124.651 C 246.1683 126.2749 248.0949 127.7554 250.5994 128.7583 C 252.0924 129.3791 253.6336 129.6657 255.223 129.6657 C 265.2408 129.6657 269.9125 117.8214 271.213 113.8098 L 273.6211 107.4101 C 275.7402 109.6547 278.4374 111.4695 281.8569 112.4247 C 283.7352 112.95 285.7582 113.2367 287.8291 113.2367 C 298.8583 113.2367 309.4541 105.4997 311.1399 104.2101 C 314.1741 101.7266 317.4974 96.6165 316.7749 89.596" fill="#ffffff" stroke="none"/>
            </g>
            <g transform="translate(8.0187 8.0688)">
                <path d="M 207.7155 84.7636 C 207.7155 84.7636 206.3188 79.8921 211.5204 70.4835 C 216.6738 61.1229 220.7195 66.233 220.7195 66.233 C 220.7195 66.233 225.1504 71.0091 220.0934 78.1251 C 215.0362 85.2889 207.7155 84.7636 207.7155 84.7636 M 167.9813 91.5453 C 162.0573 106.9237 147.6568 100.6673 147.6568 100.6673 C 147.6568 100.6673 146.0191 95.1751 150.691 79.749 C 155.3627 64.3705 166.3438 70.3882 166.3438 70.3882 C 166.3438 70.3882 173.9054 76.167 167.9813 91.5453 M 157.241 27.1185 C 157.241 27.1185 166.1993 3.9554 168.3667 15.2266 C 170.534 26.4976 149.5832 60.0244 149.5832 60.0244 C 149.7759 52.4785 157.241 27.1185 157.241 27.1185 M 29.1283 84.7636 C 29.5135 69.8628 39.3388 63.3675 42.7583 66.6152 C 46.1779 69.8628 44.9257 76.8833 38.4719 81.2771 C 32.0661 85.671 29.1283 84.7636 29.1283 84.7636 M 300.5733 82.3278 C 300.0917 77.3133 295.5162 79.1758 295.5162 79.1758 C 295.5162 79.1758 288.1954 84.8113 281.7417 84.1904 C 275.3359 83.5219 277.3589 69.2897 277.3589 69.2897 C 277.3589 69.2897 278.7556 56.2037 274.9507 55.1052 C 271.1459 54.0069 266.474 58.4961 266.474 58.4961 C 266.474 58.4961 260.6464 64.8958 257.9012 73.0148 L 257.1306 73.2537 C 257.1306 73.2537 257.9974 58.9737 256.986 55.7261 C 256.2154 54.1022 249.28 54.2456 248.1723 57.1111 C 247.0163 59.9766 241.4776 79.9877 241.0923 88.3933 C 241.0923 88.3933 230.2557 97.5153 220.7676 99.0436 C 211.2796 100.5241 209.0159 94.6497 209.0159 94.6497 C 209.0159 94.6497 234.7831 87.5335 233.8679 67.1406 C 233.001 46.7475 213.1098 54.2933 210.8462 55.9648 C 208.6788 57.5887 197.0715 64.5138 193.6521 83.7606 C 193.5557 84.4293 193.3149 87.2948 193.3149 87.2948 C 193.3149 87.2948 183.3452 93.9333 177.8065 95.7005 C 177.8065 95.7005 193.3149 69.815 174.387 58.0185 C 165.814 52.9084 158.9749 63.6542 158.9749 63.6542 C 158.9749 63.6542 184.5976 35.3808 178.9143 11.4535 C 176.2171 0.0868 170.4857 -1.1549 165.1879 0.7078 C 157.1929 3.8598 154.1587 8.4446 154.1587 8.4446 C 154.1587 8.4446 143.8037 23.3455 141.3955 45.5057 C 138.9874 67.6658 135.4715 94.4109 135.4715 94.4109 C 135.4715 94.4109 130.559 99.1867 126.0316 99.4256 C 121.5043 99.6643 123.5271 86.0532 123.5271 86.0532 C 123.5271 86.0532 127.0431 65.2779 126.8022 61.7914 C 126.5613 58.3051 126.3207 56.3946 122.1304 55.153 C 117.9885 53.9113 113.413 59.1648 113.413 59.1648 C 113.413 59.1648 101.4205 77.1699 100.4091 79.9399 L 99.7829 81.0862 L 99.1568 80.3219 C 99.1568 80.3219 107.6335 55.7739 99.5421 55.4396 C 91.4508 55.0574 86.1529 64.1795 86.1529 64.1795 C 86.1529 64.1795 76.9538 79.4623 76.5685 81.1817 L 75.9424 80.4175 C 75.9424 80.4175 79.7473 62.6512 78.9766 58.2574 C 78.206 53.8635 74.0641 54.7709 74.0641 54.7709 C 74.0641 54.7709 68.7662 54.15 67.3696 57.5409 C 65.9727 60.9318 60.9157 83.3308 60.2896 90.4468 C 60.2896 90.4468 47.0449 99.8554 38.3274 99.951 C 29.6099 100.0943 30.5249 94.4586 30.5249 94.4586 C 30.5249 94.4586 62.4569 83.6173 53.7394 62.2214 C 49.8382 56.7291 45.2629 55.0096 38.8571 55.1052 C 32.4033 55.2485 24.8418 59.117 19.6402 70.6269 C 17.184 76.1192 16.1725 81.3249 16.1725 85.2889 L 16.1725 85.2889 C 16.1725 85.2889 10.2003 86.4352 7.1661 83.9039 C 4.1319 81.4204 2.398 83.9039 2.398 83.9039 C 2.398 83.9039 -2.8998 91.4022 2.2535 93.4079 C 7.4069 95.4138 15.4019 97.2765 15.4019 97.2765 L 15.4019 97.2765 C 16.1244 100.5241 18.2916 105.8253 24.601 110.5534 C 34.041 117.6695 52.2463 109.4549 52.2463 109.4549 L 59.7116 105.0611 C 59.7116 105.0611 59.9524 111.6997 65.3949 112.7027 C 70.8371 113.7055 73.1008 112.6071 82.5407 89.8739 C 88.0795 78.2207 88.4647 78.8414 88.4647 78.8414 L 89.0908 78.6982 C 89.0908 78.6982 84.8043 100.9539 86.4419 106.9715 C 88.0795 112.9892 95.2557 112.3682 95.2557 112.3682 C 95.2557 112.3682 99.1568 113.7532 102.3355 102.7209 C 105.5143 91.6887 111.5346 80.1788 111.5346 80.1788 L 112.3052 80.1788 C 112.3052 80.1788 109.6563 102.3389 113.702 109.5983 C 117.7476 116.8576 128.199 111.7475 128.199 111.7475 C 128.199 111.7475 135.5196 107.9266 136.6757 106.7805 C 136.6757 106.7805 145.3449 114.0399 157.6263 112.7027 C 185.0309 107.3537 194.7598 100.0943 194.7598 100.0943 C 194.7598 100.0943 199.4798 111.8907 214.0248 112.9892 C 230.6892 114.2308 239.792 103.8194 239.792 103.8194 C 239.792 103.8194 239.6474 110.5534 245.4751 112.9414 C 251.3028 115.3293 255.204 102.7209 255.204 102.7209 L 264.9329 76.8833 L 265.7998 76.8833 C 265.7998 76.8833 266.2814 93.4079 275.914 96.178 C 285.5947 98.9002 298.0687 89.3485 298.0687 89.3485 C 298.0687 89.3485 301.1031 87.3426 300.5733 82.3278" fill="#e24b31" stroke="none"/>
            </g>
        </g>
    </g>
</svg>